<svg xmlns="http://www.w3.org/2000/svg" viewBox="0 0 1352 494" width="1352" height="494" role="img" aria-label="AdeHQ logo">
  <title>AdeHQ logo</title>
  <g fill="#000000" fill-rule="evenodd">
    <path d="M 618.0 162.0 L 598.0 168.0 L 581.0 177.0 L 573.0 183.0 L 553.0 205.0 L 543.0 224.0 L 537.0 244.0 L 537.0 281.0 L 543.0 301.0 L 552.0 318.0 L 564.0 333.0 L 581.0 347.0 L 598.0 356.0 L 618.0 362.0 L 636.0 364.0 L 658.0 362.0 L 684.0 353.0 L 703.0 340.0 L 710.0 332.0 L 674.0 297.0 L 664.0 305.0 L 653.0 310.0 L 645.0 312.0 L 628.0 312.0 L 609.0 304.0 L 598.0 294.0 L 595.0 289.0 L 739.0 288.0 L 739.0 259.0 L 737.0 242.0 L 732.0 225.0 L 724.0 209.0 L 711.0 192.0 L 696.0 179.0 L 676.0 168.0 L 660.0 163.0 L 648.0 161.0 Z
    M 596.0 233.0 L 613.0 218.0 L 631.0 212.0 L 644.0 212.0 L 662.0 218.0 L 669.0 223.0 L 679.0 235.0 L 597.0 236.0 Z
    M 758.0 81.0 L 758.0 362.0 L 813.0 362.0 L 813.0 256.0 L 815.0 254.0 L 923.0 254.0 L 924.0 362.0 L 979.0 362.0 L 979.0 81.0 L 924.0 81.0 L 923.0 202.0 L 815.0 202.0 L 813.0 200.0 L 813.0 81.0 Z
    M 165.0 81.0 L 156.0 101.0 L 58.0 362.0 L 117.0 361.0 L 184.0 175.0 L 188.0 168.0 L 190.0 169.0 L 260.0 362.0 L 319.0 362.0 L 213.0 82.0 Z
    M 1149.0 79.0 L 1121.0 82.0 L 1093.0 91.0 L 1068.0 105.0 L 1045.0 125.0 L 1027.0 149.0 L 1014.0 178.0 L 1008.0 208.0 L 1008.0 236.0 L 1014.0 265.0 L 1026.0 292.0 L 1038.0 310.0 L 1055.0 328.0 L 1080.0 346.0 L 1105.0 357.0 L 1132.0 363.0 L 1155.0 364.0 L 1180.0 361.0 L 1206.0 352.0 L 1162.0 308.0 L 1137.0 308.0 L 1114.0 301.0 L 1095.0 289.0 L 1077.0 269.0 L 1067.0 248.0 L 1064.0 235.0 L 1063.0 217.0 L 1069.0 190.0 L 1078.0 173.0 L 1093.0 156.0 L 1110.0 144.0 L 1138.0 135.0 L 1161.0 135.0 L 1175.0 138.0 L 1195.0 147.0 L 1205.0 154.0 L 1217.0 166.0 L 1226.0 179.0 L 1234.0 198.0 L 1237.0 214.0 L 1236.0 237.0 L 1231.0 254.0 L 1223.0 269.0 L 1213.0 282.0 L 1279.0 282.0 L 1290.0 250.0 L 1293.0 221.0 L 1290.0 193.0 L 1282.0 167.0 L 1268.0 141.0 L 1245.0 115.0 L 1228.0 102.0 L 1203.0 89.0 L 1180.0 82.0 Z
    M 521.0 86.0 L 469.0 69.0 L 469.0 170.0 L 465.0 171.0 L 450.0 164.0 L 431.0 160.0 L 407.0 160.0 L 388.0 164.0 L 368.0 173.0 L 356.0 181.0 L 345.0 191.0 L 330.0 211.0 L 321.0 232.0 L 317.0 252.0 L 317.0 273.0 L 321.0 293.0 L 329.0 312.0 L 340.0 328.0 L 355.0 343.0 L 372.0 354.0 L 390.0 361.0 L 410.0 365.0 L 430.0 365.0 L 450.0 361.0 L 467.0 354.0 L 485.0 342.0 L 497.0 330.0 L 509.0 313.0 L 518.0 292.0 L 522.0 272.0 Z
    M 413.0 213.0 L 432.0 214.0 L 450.0 223.0 L 463.0 238.0 L 469.0 255.0 L 469.0 270.0 L 467.0 278.0 L 458.0 294.0 L 445.0 305.0 L 425.0 312.0 L 404.0 310.0 L 389.0 302.0 L 375.0 285.0 L 370.0 269.0 L 371.0 250.0 L 380.0 232.0 L 395.0 219.0 Z"/>
    <g fill="#2F66E8" fill-rule="evenodd">
      <path d="M 146.0 295.0 L 188.0 361.0 L 190.0 360.0 L 231.0 296.0 L 231.0 295.0 Z"/>
      <path d="M 1138.0 282.0 L 1230.0 374.0 L 1302.0 374.0 L 1212.0 283.0 L 1208.0 284.0 L 1207.0 283.0 Z"/>
    </g>
  </g>
</svg>
