<svg xmlns="http://www.w3.org/2000/svg" viewBox="0 0 640 622" role="img" aria-label="Nexcache logo">
  <title>AdeHQ icon</title>
  <g fill="#2F6FED">
    <path d="M 121.0 149.0 L 121.0 158.0 L 126.0 168.0 L 133.0 175.0 L 268.0 256.0 L 282.0 263.0 L 296.0 267.0 L 301.0 267.0 L 302.0 266.0 L 302.0 157.0 L 305.0 151.0 L 311.0 146.0 L 314.0 145.0 L 324.0 145.0 L 328.0 147.0 L 333.0 152.0 L 336.0 159.0 L 336.0 266.0 L 340.0 266.0 L 344.0 264.0 L 347.0 264.0 L 361.0 258.0 L 363.0 256.0 L 370.0 253.0 L 372.0 251.0 L 379.0 248.0 L 381.0 246.0 L 388.0 243.0 L 390.0 241.0 L 397.0 238.0 L 399.0 236.0 L 406.0 233.0 L 408.0 231.0 L 415.0 228.0 L 417.0 226.0 L 424.0 223.0 L 426.0 221.0 L 433.0 218.0 L 435.0 216.0 L 496.0 183.0 L 504.0 178.0 L 512.0 170.0 L 516.0 161.0 L 516.0 151.0 L 513.0 144.0 L 506.0 136.0 L 499.0 131.0 L 474.0 117.0 L 363.0 50.0 L 342.0 43.0 L 326.0 42.0 L 325.0 41.0 L 306.0 42.0 L 305.0 43.0 L 295.0 44.0 L 286.0 47.0 L 272.0 54.0 L 270.0 56.0 L 263.0 59.0 L 261.0 61.0 L 254.0 64.0 L 252.0 66.0 L 234.0 75.0 L 232.0 77.0 L 225.0 80.0 L 223.0 82.0 L 216.0 85.0 L 214.0 87.0 L 207.0 90.0 L 205.0 92.0 L 198.0 95.0 L 196.0 97.0 L 189.0 100.0 L 187.0 102.0 L 137.0 129.0 L 125.0 140.0 Z"/>
    <path d="M 78.0 201.0 L 71.0 209.0 L 68.0 215.0 L 68.0 218.0 L 66.0 223.0 L 66.0 418.0 L 67.0 419.0 L 67.0 424.0 L 68.0 425.0 L 69.0 432.0 L 73.0 444.0 L 80.0 458.0 L 93.0 476.0 L 101.0 484.0 L 111.0 491.0 L 130.0 501.0 L 153.0 515.0 L 160.0 518.0 L 176.0 528.0 L 183.0 531.0 L 206.0 545.0 L 213.0 548.0 L 229.0 558.0 L 236.0 561.0 L 252.0 571.0 L 260.0 575.0 L 266.0 577.0 L 270.0 577.0 L 271.0 578.0 L 278.0 578.0 L 288.0 574.0 L 295.0 567.0 L 299.0 559.0 L 300.0 552.0 L 301.0 551.0 L 301.0 357.0 L 300.0 356.0 L 300.0 351.0 L 298.0 344.0 L 292.0 346.0 L 285.0 351.0 L 280.0 353.0 L 278.0 355.0 L 273.0 357.0 L 271.0 359.0 L 266.0 361.0 L 264.0 363.0 L 259.0 365.0 L 252.0 370.0 L 247.0 372.0 L 245.0 374.0 L 240.0 376.0 L 238.0 378.0 L 233.0 380.0 L 231.0 382.0 L 206.0 396.0 L 196.0 397.0 L 190.0 394.0 L 185.0 389.0 L 183.0 384.0 L 183.0 375.0 L 185.0 371.0 L 191.0 365.0 L 225.0 346.0 L 227.0 344.0 L 232.0 342.0 L 246.0 333.0 L 251.0 331.0 L 253.0 329.0 L 258.0 327.0 L 260.0 325.0 L 265.0 323.0 L 267.0 321.0 L 272.0 319.0 L 282.0 313.0 L 283.0 311.0 L 275.0 300.0 L 265.0 290.0 L 255.0 283.0 L 241.0 276.0 L 209.0 257.0 L 202.0 254.0 L 170.0 235.0 L 163.0 232.0 L 131.0 213.0 L 124.0 210.0 L 115.0 204.0 L 105.0 199.0 L 98.0 197.0 L 88.0 197.0 Z"/>
    <path d="M 556.0 199.0 L 550.0 197.0 L 539.0 197.0 L 532.0 199.0 L 524.0 203.0 L 515.0 209.0 L 508.0 212.0 L 499.0 218.0 L 492.0 221.0 L 476.0 231.0 L 469.0 234.0 L 453.0 244.0 L 446.0 247.0 L 437.0 253.0 L 430.0 256.0 L 414.0 266.0 L 407.0 269.0 L 405.0 271.0 L 379.0 285.0 L 370.0 292.0 L 356.0 308.0 L 358.0 311.0 L 447.0 364.0 L 452.0 369.0 L 454.0 373.0 L 454.0 383.0 L 450.0 390.0 L 445.0 394.0 L 442.0 395.0 L 432.0 395.0 L 344.0 342.0 L 340.0 341.0 L 338.0 351.0 L 337.0 352.0 L 337.0 358.0 L 336.0 359.0 L 336.0 548.0 L 337.0 549.0 L 337.0 554.0 L 339.0 561.0 L 343.0 568.0 L 349.0 574.0 L 359.0 578.0 L 366.0 578.0 L 367.0 577.0 L 372.0 577.0 L 375.0 575.0 L 377.0 575.0 L 401.0 562.0 L 403.0 560.0 L 410.0 557.0 L 426.0 547.0 L 433.0 544.0 L 449.0 534.0 L 456.0 531.0 L 479.0 517.0 L 486.0 514.0 L 502.0 504.0 L 509.0 501.0 L 518.0 495.0 L 523.0 493.0 L 536.0 484.0 L 544.0 476.0 L 552.0 466.0 L 561.0 451.0 L 568.0 433.0 L 570.0 421.0 L 571.0 420.0 L 571.0 412.0 L 572.0 411.0 L 572.0 231.0 L 571.0 230.0 L 571.0 222.0 L 569.0 215.0 L 565.0 207.0 L 565.0 207.0 Z"/>
  </g>
</svg>
